<svg width="14" height="22" viewBox="0 0 14 22" fill="none" xmlns="http://www.w3.org/2000/svg">
<path d="M9.34256 13.0069L10.4068 13.1186V21.7812L7.46718 18.6423V13.6484L8.32096 14.0653L9.34256 13.0069ZM4.6574 13.0069L3.59259 13.1186V21.7812L6.53217 18.6423V13.6484L5.67843 14.0653L4.6574 13.0069ZM12.719 7.57972L13.0634 8.7785L12.0295 9.47553L11.9429 10.721L10.7331 11.0222L10.2267 12.1619L8.9864 12.0309L8.12039 12.9256L6.99998 12.3783L5.87957 12.9256L5.01356 12.028L3.77324 12.159L3.26685 11.0193L2.05701 10.721L1.97043 9.47727L0.93365 8.77789L1.27809 7.57916L0.547119 6.56928L1.28043 5.56053L0.93365 4.36414L1.96809 3.66711L2.05467 2.42328L3.26685 2.12506L3.77324 0.985391L5.01356 1.11636L5.87957 0.21875L6.99998 0.766109L8.12039 0.21875L8.9864 1.11636L10.2267 0.985391L10.7331 2.12506L11.9429 2.42623L12.0295 3.67002L13.0634 4.36705L12.719 5.56583L13.4528 6.56928L12.719 7.57972ZM10.4121 6.56928C10.4121 5.89953 10.2135 5.24481 9.84136 4.68793C9.46926 4.13105 8.94038 3.69701 8.32161 3.44071C7.70284 3.1844 7.02196 3.11734 6.36507 3.248C5.70818 3.37867 5.10479 3.70119 4.63121 4.17477C4.15762 4.64836 3.8351 5.25175 3.70444 5.90864C3.57377 6.56552 3.64083 7.24641 3.89714 7.86518C4.15344 8.48395 4.58748 9.01283 5.14436 9.38492C5.70124 9.75702 6.35596 9.95563 7.02571 9.95563C7.9234 9.95422 8.78391 9.597 9.41867 8.96224C10.0534 8.32748 10.4107 7.46697 10.4121 6.56928ZM7.02571 4.11852C6.54101 4.11852 6.06719 4.26225 5.66417 4.53153C5.26115 4.80082 4.94704 5.18357 4.76155 5.63137C4.57606 6.07918 4.52752 6.57194 4.62208 7.04733C4.71664 7.52272 4.95004 7.9594 5.29278 8.30214C5.63551 8.64488 6.07218 8.87829 6.54757 8.97286C7.02296 9.06742 7.51572 9.0189 7.96353 8.83342C8.41134 8.64793 8.7941 8.33383 9.06339 7.93081C9.33268 7.5278 9.47642 7.05399 9.47643 6.56928C9.47458 5.92004 9.21572 5.29795 8.75648 4.83903C8.29723 4.38011 7.67496 4.12169 7.02571 4.1203V4.11852Z" fill="black"/>
</svg>
