<svg width="8" height="6" viewBox="0 0 8 6" fill="none" xmlns="http://www.w3.org/2000/svg">
<path d="M4.31979 5.64368L7.92274 0.839743C7.96735 0.780267 7.99451 0.709543 8.00119 0.635498C8.00787 0.561453 7.99379 0.487011 7.96054 0.420514C7.9273 0.354018 7.87619 0.298093 7.81294 0.259007C7.7497 0.219922 7.67683 0.199219 7.60248 0.199219H0.396581C0.322654 0.199443 0.250232 0.220133 0.187344 0.258997C0.124455 0.29786 0.0735569 0.353379 0.0402899 0.419399C0.0104675 0.483379 -0.00190735 0.554107 0.0044198 0.624413C0.010747 0.694718 0.0355525 0.7621 0.0763192 0.819727L3.67927 5.62366C3.71656 5.67338 3.76491 5.71373 3.8205 5.74153C3.87609 5.76932 3.93738 5.78379 3.99953 5.78379C4.06168 5.78379 4.12297 5.76932 4.17856 5.74153C4.23415 5.71373 4.2825 5.67338 4.31979 5.62366V5.64368Z" fill="black"/>
</svg>
