<svg width="22" height="24" viewBox="0 0 22 24" fill="none" xmlns="http://www.w3.org/2000/svg">
<path d="M21.428 14.8127L19.3556 12.9671C18.7556 12.4331 18.7556 11.5583 19.3556 11.0243L21.428 9.17751C22.028 8.64351 21.8684 8.14671 21.0728 8.06871L18.3248 7.80831C17.5304 7.73391 17.1008 7.04871 17.3756 6.28911L18.8336 2.22951C19.1072 1.46751 18.7724 1.19151 18.0908 1.61271L14.8496 3.61671C14.6889 3.71696 14.5095 3.78337 14.3223 3.81189C14.1352 3.84041 13.9441 3.83044 13.7609 3.78259C13.5777 3.73474 13.4062 3.65001 13.2568 3.53359C13.1075 3.41717 12.9835 3.27151 12.8924 3.10551L11.7188 1.01031C11.324 0.304714 10.6724 0.302313 10.2704 1.00071L9.17959 2.89671C8.77519 3.59871 7.84999 3.89631 7.12399 3.56391L5.20399 2.68311C4.47439 2.34711 3.91639 2.73351 3.95959 3.54231L4.06279 5.48031C4.10719 6.28911 3.50959 7.12071 2.73799 7.32951L0.883986 7.82631C0.113586 8.03511 -0.0280144 8.64231 0.571986 9.17631L2.64439 11.0231C3.24439 11.5571 3.24439 12.4319 2.64439 12.9659L0.571986 14.8127C-0.0280144 15.3467 0.130386 15.8651 0.923586 15.9611L3.43759 16.2659C4.23079 16.3619 4.67239 17.0699 4.41919 17.8391L3.13039 21.7487C2.87719 22.5179 3.23839 22.8155 3.93199 22.4147L6.88759 20.7035C7.23233 20.5123 7.63599 20.4565 8.01967 20.5471C8.40336 20.6376 8.73949 20.868 8.96239 21.1931L10.1888 23.0399C10.6352 23.7107 11.306 23.6747 11.6768 22.9583L12.7556 20.8787C12.9352 20.5337 13.2425 20.2725 13.6119 20.1508C13.9813 20.029 14.3837 20.0564 14.7332 20.2271L16.814 21.2675C17.5316 21.6239 18.0824 21.2555 18.0392 20.4491L17.9348 18.5087C17.8928 17.6999 18.488 16.8707 19.262 16.6619L21.1136 16.1627C21.8864 15.9539 22.028 15.3467 21.428 14.8127ZM12.2 16.7999H9.79999V14.3999H12.2V16.7999ZM12.2 13.1999H9.79999V7.19991H12.2V13.1999Z" fill="black"/>
</svg>
