<svg width="12" height="13" viewBox="0 0 12 13" fill="none" xmlns="http://www.w3.org/2000/svg">
<path d="M0.666672 1.41675H1.75067C2.12867 1.41675 2.31734 1.41675 2.46801 1.49941C2.53012 1.53361 2.58638 1.57749 2.63467 1.62941C2.75134 1.75541 2.79734 1.93875 2.88867 2.30541L3.01001 2.79008C3.07734 3.05941 3.11134 3.19408 3.16334 3.30741C3.25223 3.50081 3.38612 3.67012 3.55383 3.80118C3.72154 3.93223 3.91819 4.02124 4.12734 4.06075C4.25001 4.08341 4.38867 4.08341 4.66667 4.08341" stroke="white" stroke-width="1.33333" stroke-linecap="round"/>
<path d="M10 10.0835H3.03333C2.93667 10.0835 2.888 10.0835 2.85067 10.0795C2.7581 10.0692 2.66873 10.0396 2.58831 9.99258C2.50788 9.9456 2.4382 9.88229 2.38374 9.80673C2.32929 9.73117 2.29127 9.64503 2.27214 9.55388C2.253 9.46273 2.25318 9.36858 2.27267 9.2775C2.28799 9.21848 2.30601 9.1602 2.32667 9.10283C2.36133 9.00016 2.378 8.94883 2.39733 8.90283C2.49223 8.67553 2.64824 8.47895 2.84806 8.33492C3.04788 8.19088 3.28369 8.10501 3.52933 8.08683C3.57867 8.0835 3.63333 8.0835 3.74067 8.0835H7.33333" stroke="white" stroke-width="1.33333" stroke-linecap="round" stroke-linejoin="round"/>
<path d="M7.68534 8.0835H5.31601C4.50534 8.0835 4.10001 8.0835 3.78734 7.90016C3.65552 7.82259 3.53803 7.72291 3.44001 7.6055C3.20668 7.32683 3.14001 6.92683 3.00734 6.1275C2.87201 5.3175 2.80468 4.91216 2.96534 4.61216C3.03218 4.48696 3.1249 4.37743 3.23734 4.29083C3.50668 4.0835 3.91734 4.0835 4.73868 4.0835H9.17601C10.1427 4.0835 10.626 4.0835 10.822 4.3995C11.0173 4.71616 10.8007 5.14816 10.3687 6.01283L10.0707 6.6095C9.71201 7.32683 9.53268 7.6855 9.21068 7.88416C8.88801 8.0835 8.48734 8.0835 7.68534 8.0835Z" stroke="white" stroke-width="1.33333" stroke-linecap="round"/>
<path d="M9.33334 12.7501C9.70153 12.7501 10 12.4516 10 12.0834C10 11.7152 9.70153 11.4167 9.33334 11.4167C8.96515 11.4167 8.66667 11.7152 8.66667 12.0834C8.66667 12.4516 8.96515 12.7501 9.33334 12.7501Z" fill="white"/>
<path d="M4.00001 12.7501C4.3682 12.7501 4.66668 12.4516 4.66668 12.0834C4.66668 11.7152 4.3682 11.4167 4.00001 11.4167C3.63182 11.4167 3.33334 11.7152 3.33334 12.0834C3.33334 12.4516 3.63182 12.7501 4.00001 12.7501Z" fill="white"/>
</svg>
