<svg width="14" height="14" viewBox="0 0 14 14" fill="none" xmlns="http://www.w3.org/2000/svg">
<path d="M2.83331 0.666748H11.5C12.0304 0.666748 12.5391 0.877462 12.9142 1.25253C13.2893 1.62761 13.5 2.13632 13.5 2.66675V8.66675C13.5 9.19718 13.2893 9.70589 12.9142 10.081C12.5391 10.456 12.0304 10.6667 11.5 10.6667H8.43998L5.97331 13.1401C5.85331 13.2601 5.68665 13.3334 5.49998 13.3334C5.32317 13.3334 5.1536 13.2632 5.02858 13.1382C4.90355 13.0131 4.83331 12.8436 4.83331 12.6667V10.6667H2.83331C2.30288 10.6667 1.79417 10.456 1.4191 10.081C1.04403 9.70589 0.833313 9.19718 0.833313 8.66675V2.66675C0.833313 2.13632 1.04403 1.62761 1.4191 1.25253C1.79417 0.877462 2.30288 0.666748 2.83331 0.666748ZM11.5 1.33341H2.83331C2.47969 1.33341 2.14055 1.47389 1.8905 1.72394C1.64046 1.97399 1.49998 2.31313 1.49998 2.66675V8.66675C1.49998 9.02037 1.64046 9.35951 1.8905 9.60956C2.14055 9.85961 2.47969 10.0001 2.83331 10.0001H5.49998V12.6667L8.16665 10.0001H11.5C11.8536 10.0001 12.1927 9.85961 12.4428 9.60956C12.6928 9.35951 12.8333 9.02037 12.8333 8.66675V2.66675C12.8333 2.31313 12.6928 1.97399 12.4428 1.72394C12.1927 1.47389 11.8536 1.33341 11.5 1.33341Z" fill="black" fill-opacity="0.6"/>
</svg>
