<svg width="6" height="9" viewBox="0 0 6 9" fill="none" xmlns="http://www.w3.org/2000/svg">
<path d="M5.64383 4.18009L0.839896 0.577136C0.780419 0.532529 0.709696 0.505365 0.635651 0.498688C0.561605 0.492011 0.487164 0.506086 0.420667 0.539334C0.35417 0.572583 0.298246 0.623691 0.25916 0.686933C0.220074 0.750176 0.199371 0.823053 0.199371 0.897398V8.1033C0.199595 8.17722 0.220286 8.24965 0.259149 8.31253C0.298013 8.37542 0.353532 8.42632 0.419552 8.45959C0.483532 8.48941 0.55426 8.50179 0.624565 8.49546C0.69487 8.48913 0.762252 8.46433 0.819879 8.42356L5.62381 4.82061C5.67353 4.78332 5.71389 4.73497 5.74168 4.67938C5.76947 4.62379 5.78394 4.5625 5.78394 4.50035C5.78394 4.4382 5.76947 4.3769 5.74168 4.32132C5.71389 4.26573 5.67353 4.21737 5.62381 4.18009H5.64383Z" fill="#0238E8"/>
</svg>
