<svg width="22" height="20" viewBox="0 0 22 20" fill="none" xmlns="http://www.w3.org/2000/svg">
<path d="M11 20C8.96662 20 7.14429 19.4597 5.53295 18.379C3.92095 17.2983 2.71095 15.8443 1.90295 14.017V17.307H0.902954V12.307H5.90295V13.307H2.69895C3.34562 15.0203 4.42862 16.3973 5.94795 17.438C7.46729 18.4787 9.15129 18.9993 11 19C12.1986 19 13.3246 18.785 14.378 18.355C15.4313 17.9243 16.359 17.3307 17.161 16.574C17.9623 15.8167 18.6133 14.918 19.114 13.878C19.6146 12.838 19.9036 11.712 19.981 10.5H20.981C20.9163 11.824 20.6096 13.063 20.061 14.217C19.5123 15.371 18.792 16.3777 17.9 17.237C17.008 18.0963 15.9696 18.7717 14.785 19.263C13.5983 19.7543 12.3366 20 11 20ZM1.01995 9.5C1.10929 8.11133 1.43495 6.837 1.99695 5.677C2.55895 4.517 3.29229 3.51367 4.19695 2.667C5.10162 1.82033 6.13629 1.16467 7.30095 0.7C8.46562 0.235333 9.69862 0.002 11 0C12.9946 0 14.817 0.543333 16.467 1.63C18.117 2.71667 19.327 4.19333 20.097 6.06V2.692H21.097V7.692H16.097V6.692H19.302C18.6946 5.03067 17.6276 3.66667 16.101 2.6C14.5743 1.53333 12.874 1 11 1C9.85262 1 8.75562 1.20867 7.70895 1.626C6.66229 2.04333 5.73129 2.624 4.91595 3.368C4.10062 4.112 3.43329 5.00433 2.91395 6.045C2.39462 7.08567 2.09662 8.23733 2.01995 9.5H1.01995ZM11.039 15.135C11.2603 15.135 11.447 15.059 11.599 14.907C11.751 14.755 11.827 14.5683 11.827 14.347C11.827 14.1243 11.751 13.9363 11.599 13.783C11.447 13.629 11.2603 13.552 11.039 13.552C10.8176 13.552 10.6306 13.628 10.478 13.78C10.3253 13.932 10.2493 14.1187 10.25 14.34C10.2506 14.5613 10.3266 14.7493 10.478 14.904C10.6293 15.0587 10.816 15.1353 11.038 15.134M10.523 11.834H11.483C11.5083 11.388 11.5916 11.0313 11.733 10.764C11.8743 10.4967 12.1426 10.165 12.538 9.769C13.0186 9.28833 13.3613 8.875 13.566 8.529C13.7706 8.183 13.873 7.78633 13.873 7.339C13.873 6.54633 13.607 5.91033 13.075 5.431C12.543 4.95167 11.877 4.71167 11.077 4.711C10.4103 4.711 9.82829 4.87967 9.33095 5.217C8.83362 5.55433 8.44495 6.027 8.16495 6.635L9.08495 7.027C9.25229 6.61967 9.51129 6.287 9.86195 6.029C10.2126 5.771 10.6046 5.642 11.038 5.642C11.5646 5.642 12.008 5.8 12.368 6.116C12.728 6.432 12.908 6.84533 12.908 7.356C12.908 7.69067 12.822 7.993 12.65 8.263C12.478 8.533 12.2266 8.82167 11.896 9.129C11.3586 9.625 10.9953 10.0733 10.806 10.474C10.6166 10.8747 10.5223 11.328 10.523 11.834Z" fill="black"/>
</svg>
