<svg width="14" height="14" viewBox="0 0 14 14" fill="none" xmlns="http://www.w3.org/2000/svg">
<path d="M13.1667 7.00009H4.93004M2.02271 7.00009H0.833374M2.02271 7.00009C2.02271 6.61464 2.17583 6.24498 2.44838 5.97243C2.72093 5.69988 3.09059 5.54676 3.47604 5.54676C3.86149 5.54676 4.23115 5.69988 4.5037 5.97243C4.77626 6.24498 4.92937 6.61464 4.92937 7.00009C4.92937 7.38554 4.77626 7.7552 4.5037 8.02775C4.23115 8.3003 3.86149 8.45342 3.47604 8.45342C3.09059 8.45342 2.72093 8.3003 2.44838 8.02775C2.17583 7.7552 2.02271 7.38554 2.02271 7.00009ZM13.1667 11.4048H9.33471M9.33471 11.4048C9.33471 11.7903 9.18122 12.1604 8.90861 12.433C8.63599 12.7056 8.26624 12.8588 7.88071 12.8588C7.49526 12.8588 7.1256 12.705 6.85305 12.4324C6.58049 12.1599 6.42737 11.7902 6.42737 11.4048M9.33471 11.4048C9.33471 11.0192 9.18122 10.6498 8.90861 10.3772C8.63599 10.1046 8.26624 9.95142 7.88071 9.95142C7.49526 9.95142 7.1256 10.1045 6.85305 10.3771C6.58049 10.6496 6.42737 11.0193 6.42737 11.4048M6.42737 11.4048H0.833374M13.1667 2.59542H11.0967M8.18937 2.59542H0.833374M8.18937 2.59542C8.18937 2.20998 8.34249 1.84031 8.61505 1.56776C8.8876 1.29521 9.25726 1.14209 9.64271 1.14209C9.83356 1.14209 10.0225 1.17968 10.1989 1.25272C10.3752 1.32576 10.5354 1.43281 10.6704 1.56776C10.8053 1.70272 10.9124 1.86293 10.9854 2.03926C11.0584 2.21558 11.096 2.40457 11.096 2.59542C11.096 2.78628 11.0584 2.97526 10.9854 3.15159C10.9124 3.32792 10.8053 3.48813 10.6704 3.62308C10.5354 3.75804 10.3752 3.86509 10.1989 3.93813C10.0225 4.01117 9.83356 4.04876 9.64271 4.04876C9.25726 4.04876 8.8876 3.89564 8.61505 3.62308C8.34249 3.35053 8.18937 2.98087 8.18937 2.59542Z" stroke="black" stroke-miterlimit="10" stroke-linecap="round"/>
</svg>
