<svg width="22" height="20" viewBox="0 0 22 20" fill="none" xmlns="http://www.w3.org/2000/svg">
<path d="M10.875 18C10.9417 18 11.0083 17.9833 11.075 17.95C11.1417 17.9167 11.1917 17.8833 11.225 17.85L19.425 9.65C19.625 9.45 19.771 9.225 19.863 8.975C19.955 8.725 20.0007 8.475 20 8.225C20 7.95833 19.9543 7.704 19.863 7.462C19.7717 7.22 19.6257 7.00767 19.425 6.825L15.175 2.575C14.9917 2.375 14.779 2.22933 14.537 2.138C14.295 2.04667 14.0413 2.00067 13.776 2C13.526 2 13.276 2.046 13.026 2.138C12.776 2.23 12.551 2.37567 12.351 2.575L12.076 2.85L13.926 4.725C14.176 4.95833 14.3593 5.225 14.476 5.525C14.5927 5.825 14.651 6.14167 14.651 6.475C14.651 7.175 14.4137 7.76267 13.939 8.238C13.4643 8.71333 12.8767 8.95067 12.176 8.95C11.8427 8.95 11.522 8.89167 11.214 8.775C10.906 8.65833 10.635 8.48333 10.401 8.25L8.52499 6.4L4.14999 10.775C4.09999 10.825 4.06266 10.8793 4.03799 10.938C4.01332 10.9967 4.00066 11.059 3.99999 11.125C3.99999 11.2583 4.04999 11.3793 4.14999 11.488C4.24999 11.5967 4.36666 11.6507 4.49999 11.65C4.56666 11.65 4.63332 11.6333 4.69999 11.6C4.76666 11.5667 4.81666 11.5333 4.84999 11.5L8.24999 8.1L9.64999 9.5L6.27499 12.9C6.22499 12.95 6.18766 13.0043 6.16299 13.063C6.13832 13.1217 6.12566 13.184 6.12499 13.25C6.12499 13.3833 6.17499 13.5 6.27499 13.6C6.37499 13.7 6.49166 13.75 6.62499 13.75C6.69166 13.75 6.75832 13.7333 6.82499 13.7C6.89166 13.6667 6.94166 13.6333 6.97499 13.6L10.375 10.225L11.775 11.625L8.39999 15.025C8.34999 15.0583 8.31266 15.1083 8.28799 15.175C8.26332 15.2417 8.25066 15.3083 8.24999 15.375C8.24999 15.5083 8.29999 15.625 8.39999 15.725C8.49999 15.825 8.61666 15.875 8.74999 15.875C8.81666 15.875 8.87932 15.8623 8.93799 15.837C8.99666 15.8117 9.05066 15.7743 9.09999 15.725L12.5 12.35L13.9 13.75L10.5 17.15C10.45 17.2 10.4127 17.254 10.388 17.312C10.3633 17.37 10.3507 17.4327 10.35 17.5C10.35 17.6333 10.4043 17.75 10.513 17.85C10.6217 17.95 10.7423 18 10.875 18ZM10.85 20C10.2333 20 9.68766 19.796 9.21299 19.388C8.73833 18.98 8.45899 18.4673 8.37499 17.85C7.80832 17.7667 7.33332 17.5333 6.94999 17.15C6.56666 16.7667 6.33332 16.2917 6.24999 15.725C5.68332 15.6417 5.21266 15.4043 4.83799 15.013C4.46332 14.6217 4.23399 14.1507 4.14999 13.6C3.51666 13.5167 2.99999 13.2417 2.59999 12.775C2.19999 12.3083 1.99999 11.7583 1.99999 11.125C1.99999 10.7917 2.06266 10.471 2.18799 10.163C2.31332 9.855 2.49232 9.584 2.72499 9.35L8.52499 3.575L11.8 6.85C11.8333 6.9 11.8833 6.93767 11.95 6.963C12.0167 6.98833 12.0833 7.00067 12.15 7C12.3 7 12.425 6.95433 12.525 6.863C12.625 6.77167 12.675 6.65067 12.675 6.5C12.675 6.43333 12.6623 6.36667 12.637 6.3C12.6117 6.23333 12.5743 6.18333 12.525 6.15L8.94999 2.575C8.76666 2.375 8.55432 2.22933 8.31299 2.138C8.07166 2.04667 7.81733 2.00067 7.54999 2C7.29999 2 7.04999 2.046 6.79999 2.138C6.54999 2.23 6.32499 2.37567 6.12499 2.575L2.59999 6.125C2.44999 6.275 2.32499 6.45 2.22499 6.65C2.12499 6.85 2.05832 7.05 2.02499 7.25C1.99166 7.45 1.99166 7.65433 2.02499 7.863C2.05832 8.07167 2.12499 8.26733 2.22499 8.45L0.77499 9.9C0.491657 9.51667 0.283324 9.096 0.14999 8.638C0.0166569 8.18 -0.0333431 7.71733 -9.76119e-06 7.25C0.0333236 6.78267 0.14999 6.32867 0.34999 5.888C0.54999 5.44733 0.82499 5.05133 1.17499 4.7L4.69999 1.175C5.09999 0.791667 5.54599 0.5 6.03799 0.3C6.52999 0.0999999 7.03399 0 7.54999 0C8.06599 0 8.57032 0.0999999 9.06299 0.3C9.55566 0.5 9.99299 0.791667 10.375 1.175L10.65 1.45L10.925 1.175C11.325 0.791667 11.771 0.5 12.263 0.3C12.755 0.0999999 13.259 0 13.775 0C14.291 0 14.7953 0.0999999 15.288 0.3C15.7807 0.5 16.218 0.791667 16.6 1.175L20.825 5.4C21.2083 5.78333 21.5 6.225 21.7 6.725C21.9 7.225 22 7.73333 22 8.25C22 8.76667 21.9 9.271 21.7 9.763C21.5 10.255 21.2083 10.6923 20.825 11.075L12.625 19.25C12.3917 19.4833 12.121 19.6667 11.813 19.8C11.505 19.9333 11.184 20 10.85 20Z" fill="black"/>
</svg>
