<svg width="24" height="24" viewBox="0 0 24 24" fill="none" xmlns="http://www.w3.org/2000/svg">
<path d="M17.3333 1.10381e-05C16.2985 -0.00198851 15.2776 0.2677 14.3517 0.787624C13.4258 1.30755 12.6206 2.06336 12 2.99494C11.1595 1.73687 9.98865 0.808001 8.65308 0.339764C7.31751 -0.128472 5.88487 -0.112362 4.55789 0.385817C3.2309 0.883995 2.07677 1.83901 1.25881 3.11573C0.440848 4.39245 0.00047277 5.92622 0 7.50001C0 16.4829 11.0934 23.575 11.5656 23.8725C11.6984 23.9561 11.8479 24 12 24C12.1521 24 12.3016 23.9561 12.4344 23.8725C14.4746 22.5282 16.3895 20.9563 18.1502 19.1808C22.0318 15.2506 24 11.3206 24 7.50001C23.998 5.51158 23.295 3.60523 22.0452 2.1992C20.7954 0.793164 19.1008 0.00226473 17.3333 1.10381e-05V1.10381e-05Z" fill="#DBE2E5"/>
</svg>
