<svg width="19" height="17" viewBox="0 0 19 17" fill="none" xmlns="http://www.w3.org/2000/svg">
<path fill-rule="evenodd" clip-rule="evenodd" d="M1.53599 1.7779C2.47363 0.840542 3.74517 0.313965 5.07099 0.313965C6.39682 0.313965 7.66836 0.840542 8.60599 1.7779C8.78933 1.96056 9.02533 2.1879 9.31399 2.4599C9.60199 2.1879 9.83766 1.96056 10.021 1.7779C10.9547 0.848569 12.2174 0.325281 13.5348 0.321753C14.8522 0.318225 16.1177 0.834742 17.0564 1.75906C17.9951 2.68337 18.531 3.94078 18.5478 5.25805C18.5646 6.57531 18.0608 7.84597 17.146 8.7939L10.02 15.9199C9.83247 16.1074 9.57816 16.2127 9.31299 16.2127C9.04783 16.2127 8.79352 16.1074 8.60599 15.9199L1.47999 8.7949C0.566035 7.8523 0.0595042 6.58803 0.0697949 5.27513C0.0800856 3.96223 0.607371 2.70605 1.53599 1.7779Z" fill="black"/>
</svg>
