<svg width="21" height="19" viewBox="0 0 21 19" fill="none" xmlns="http://www.w3.org/2000/svg">
<path d="M14.875 0.500008C14.0019 0.498509 13.1405 0.700775 12.3593 1.09072C11.578 1.48066 10.8986 2.04752 10.375 2.74621C9.66584 1.80266 8.67792 1.106 7.55103 0.754824C6.42415 0.403646 5.21536 0.415729 4.09572 0.789363C2.97607 1.163 2.00228 1.87926 1.31212 2.8368C0.621965 3.79434 0.250399 4.94467 0.25 6.12501C0.25 12.8621 9.61008 18.1813 10.0085 18.4044C10.1205 18.4671 10.2467 18.5 10.375 18.5C10.5033 18.5 10.6295 18.4671 10.7415 18.4044C12.463 17.3961 14.0787 16.2173 15.5642 14.8856C18.8393 11.938 20.5 8.99047 20.5 6.12501C20.4983 4.63368 19.9051 3.20393 18.8506 2.1494C17.7961 1.09487 16.3663 0.501699 14.875 0.500008Z" fill="#DBE2E5"/>
</svg>
