<svg width="30" height="22" viewBox="0 0 30 22" fill="none" xmlns="http://www.w3.org/2000/svg">
<path d="M3.375 3.125C3.375 2.42881 3.65156 1.76113 4.14384 1.26884C4.63613 0.776562 5.30381 0.5 6 0.5C6.69619 0.5 7.36387 0.776562 7.85616 1.26884C8.34844 1.76113 8.625 2.42881 8.625 3.125C8.625 3.82119 8.34844 4.48887 7.85616 4.98116C7.36387 5.47344 6.69619 5.75 6 5.75C5.30381 5.75 4.63613 5.47344 4.14384 4.98116C3.65156 4.48887 3.375 3.82119 3.375 3.125ZM3 10.5172C2.53125 11.0422 2.25 11.7406 2.25 12.5C2.25 13.2594 2.53125 13.9578 3 14.4828V10.5125V10.5172ZM9.76875 8.20625C8.37656 9.43906 7.5 11.2437 7.5 13.25C7.5 14.8578 8.0625 16.3344 9 17.4922V18.5C9 19.3297 8.32969 20 7.5 20H4.5C3.67031 20 3 19.3297 3 18.5V17.2438C1.22813 16.4 0 14.5953 0 12.5C0 9.59844 2.34844 7.25 5.25 7.25H6.75C7.875 7.25 8.91562 7.60156 9.76875 8.20156V8.20625ZM21 18.5V17.4922C21.9375 16.3344 22.5 14.8578 22.5 13.25C22.5 11.2437 21.6234 9.43906 20.2313 8.20156C21.0844 7.60156 22.125 7.25 23.25 7.25H24.75C27.6516 7.25 30 9.59844 30 12.5C30 14.5953 28.7719 16.4 27 17.2438V18.5C27 19.3297 26.3297 20 25.5 20H22.5C21.6703 20 21 19.3297 21 18.5ZM21.375 3.125C21.375 2.42881 21.6516 1.76113 22.1438 1.26884C22.6361 0.776562 23.3038 0.5 24 0.5C24.6962 0.5 25.3639 0.776562 25.8562 1.26884C26.3484 1.76113 26.625 2.42881 26.625 3.125C26.625 3.82119 26.3484 4.48887 25.8562 4.98116C25.3639 5.47344 24.6962 5.75 24 5.75C23.3038 5.75 22.6361 5.47344 22.1438 4.98116C21.6516 4.48887 21.375 3.82119 21.375 3.125ZM27 10.5172V14.4875C27.4688 13.9578 27.75 13.2641 27.75 12.5047C27.75 11.7453 27.4688 11.0469 27 10.5219V10.5172ZM15 0.5C15.7956 0.5 16.5587 0.816071 17.1213 1.37868C17.6839 1.94129 18 2.70435 18 3.5C18 4.29565 17.6839 5.05871 17.1213 5.62132C16.5587 6.18393 15.7956 6.5 15 6.5C14.2044 6.5 13.4413 6.18393 12.8787 5.62132C12.3161 5.05871 12 4.29565 12 3.5C12 2.70435 12.3161 1.94129 12.8787 1.37868C13.4413 0.816071 14.2044 0.5 15 0.5ZM11.25 13.25C11.25 14.0094 11.5312 14.7031 12 15.2328V11.2625C11.5312 11.7922 11.25 12.4859 11.25 13.2453V13.25ZM18 11.2672V15.2375C18.4688 14.7078 18.75 14.0141 18.75 13.2547C18.75 12.4953 18.4688 11.7969 18 11.2719V11.2672ZM21 13.25C21 15.3453 19.7719 17.15 18 17.9938V20C18 20.8297 17.3297 21.5 16.5 21.5H13.5C12.6703 21.5 12 20.8297 12 20V17.9938C10.2281 17.15 9 15.3453 9 13.25C9 10.3484 11.3484 8 14.25 8H15.75C18.6516 8 21 10.3484 21 13.25Z" fill="black"/>
</svg>
