<svg width="24" height="25" viewBox="0 0 24 25" fill="none" xmlns="http://www.w3.org/2000/svg">
<path d="M12 2.06641C6.48 2.06641 2 6.54641 2 12.0664C2 17.5864 6.48 22.0664 12 22.0664C17.52 22.0664 22 17.5864 22 12.0664C22 6.54641 17.52 2.06641 12 2.06641ZM16.64 8.86641C16.49 10.4464 15.84 14.2864 15.51 16.0564C15.37 16.8064 15.09 17.0564 14.83 17.0864C14.25 17.1364 13.81 16.7064 13.25 16.3364C12.37 15.7564 11.87 15.3964 11.02 14.8364C10.03 14.1864 10.67 13.8264 11.24 13.2464C11.39 13.0964 13.95 10.7664 14 10.5564C14.0069 10.5246 14.006 10.4916 13.9973 10.4602C13.9886 10.4288 13.9724 10.4001 13.95 10.3764C13.89 10.3264 13.81 10.3464 13.74 10.3564C13.65 10.3764 12.25 11.3064 9.52 13.1464C9.12 13.4164 8.76 13.5564 8.44 13.5464C8.08 13.5364 7.4 13.3464 6.89 13.1764C6.26 12.9764 5.77 12.8664 5.81 12.5164C5.83 12.3364 6.08 12.1564 6.55 11.9664C9.47 10.6964 11.41 9.85641 12.38 9.45641C15.16 8.29641 15.73 8.09641 16.11 8.09641C16.19 8.09641 16.38 8.11641 16.5 8.21641C16.6 8.29641 16.63 8.40641 16.64 8.48641C16.63 8.54641 16.65 8.72641 16.64 8.86641Z" fill="white"/>
</svg>
