<svg width="24" height="25" viewBox="0 0 24 25" fill="none" xmlns="http://www.w3.org/2000/svg">
<path d="M4.26 4.32641C3 5.59841 3 7.63241 3 11.7064V12.4264C3 16.4944 3 18.5284 4.26 19.8064C5.532 21.0664 7.566 21.0664 11.64 21.0664H12.36C16.428 21.0664 18.462 21.0664 19.74 19.8064C21 18.5344 21 16.5004 21 12.4264V11.7064C21 7.63841 21 5.60441 19.74 4.32641C18.468 3.06641 16.434 3.06641 12.36 3.06641H11.64C7.572 3.06641 5.538 3.06641 4.26 4.32641ZM6.036 8.54441H8.1C8.166 11.9764 9.678 13.4284 10.878 13.7284V8.54441H12.816V11.5024C13.998 11.3764 15.246 10.0264 15.666 8.53841H17.598C17.4404 9.30862 17.1256 10.0381 16.6735 10.6812C16.2213 11.3244 15.6414 11.8674 14.97 12.2764C15.7194 12.6493 16.3813 13.1768 16.9118 13.8243C17.4424 14.4717 17.8297 15.2243 18.048 16.0324H15.918C15.462 14.6104 14.322 13.5064 12.816 13.3564V16.0324H12.576C8.472 16.0324 6.132 13.2244 6.036 8.54441Z" fill="white"/>
</svg>
