<svg width="24" height="25" viewBox="0 0 24 25" fill="none" xmlns="http://www.w3.org/2000/svg">
<path d="M10 15.0664L15.19 12.0664L10 9.06641V15.0664ZM21.56 7.23641C21.69 7.70641 21.78 8.33641 21.84 9.13641C21.91 9.93641 21.94 10.6264 21.94 11.2264L22 12.0664C22 14.2564 21.84 15.8664 21.56 16.8964C21.31 17.7964 20.73 18.3764 19.83 18.6264C19.36 18.7564 18.5 18.8464 17.18 18.9064C15.88 18.9764 14.69 19.0064 13.59 19.0064L12 19.0664C7.81 19.0664 5.2 18.9064 4.17 18.6264C3.27 18.3764 2.69 17.7964 2.44 16.8964C2.31 16.4264 2.22 15.7964 2.16 14.9964C2.09 14.1964 2.06 13.5064 2.06 12.9064L2 12.0664C2 9.87641 2.16 8.26641 2.44 7.23641C2.69 6.33641 3.27 5.75641 4.17 5.50641C4.64 5.37641 5.5 5.28641 6.82 5.22641C8.12 5.15641 9.31 5.12641 10.41 5.12641L12 5.06641C16.19 5.06641 18.8 5.22641 19.83 5.50641C20.73 5.75641 21.31 6.33641 21.56 7.23641Z" fill="white"/>
</svg>
